<svg xmlns="http://www.w3.org/2000/svg" width="20.378" height="16.447" viewBox="0 0 20.378 16.447">
  <path id="iconfinder_arrow-right_227601_1_" data-name="iconfinder_arrow-right_227601 (1)" d="M9.019,24.959H24.9l-5.465,5.465a1.019,1.019,0,1,0,1.441,1.441l7.2-7.2h0a1.029,1.029,0,0,0,.127-.155c.017-.026.029-.053.044-.08a1.019,1.019,0,0,0,.05-.1.906.906,0,0,0,.033-.106c.008-.028.019-.055.025-.084a1.018,1.018,0,0,0,.02-.2h0v0a1.027,1.027,0,0,0-.02-.2c-.006-.031-.018-.059-.026-.089a.947.947,0,0,0-.031-.1,1.055,1.055,0,0,0-.053-.1c-.014-.025-.025-.05-.041-.074a1,1,0,0,0-.128-.156l-7.2-7.2a1.019,1.019,0,1,0-1.441,1.441L24.9,22.921H9.019a1.019,1.019,0,1,0,0,2.038Z" transform="translate(-8 -15.716)" fill="#fff"/>
</svg>
