<svg xmlns="http://www.w3.org/2000/svg" width="14.502" height="14.469" viewBox="0 0 14.502 14.469">
  <g id="iconfinder_calendar_1814093" transform="translate(-10 -9.9)">
    <g id="Icon-Calendar" transform="translate(10 9.9)">
      <path id="Fill-133" d="M-7.007-451.615H-18.556A1.456,1.456,0,0,1-20-453.058v-10.6a1.337,1.337,0,0,1,1.214-1.444h.722v.952h-.722c-.1,0-.23.2-.23.492v10.6a.5.5,0,0,0,.492.492H-6.974a.5.5,0,0,0,.492-.492v-10.6c0-.3-.164-.492-.23-.492h-.722v-.952h.722A1.36,1.36,0,0,1-5.5-463.656v10.6a1.562,1.562,0,0,1-1.509,1.444" transform="translate(20 466.084)" fill="#e9e9e9"/>
      <path id="Fill-134" d="M-10.708-465.18a.5.5,0,0,1-.492-.492v-1.936a.5.5,0,0,1,.492-.492.5.5,0,0,1,.492.492v1.936a.529.529,0,0,1-.492.492" transform="translate(14.087 468.1)" fill="#e9e9e9"/>
      <path id="Fill-135" d="M12.692-465.18a.5.5,0,0,1-.492-.492v-1.936a.5.5,0,0,1,.492-.492.5.5,0,0,1,.492.492v1.936a.5.5,0,0,1-.492.492" transform="translate(-1.635 468.1)" fill="#e9e9e9"/>
      <path id="Fill-136" d="M-5.3-465.1H-.51v.984H-5.3Z" transform="translate(10.123 466.084)" fill="#e9e9e9"/>
      <path id="Fill-137" d="M-17.1-456.3H-4.566v.984H-17.1Z" transform="translate(18.052 460.172)" fill="#e9e9e9"/>
    </g>
  </g>
</svg>
