<svg xmlns="http://www.w3.org/2000/svg" width="20.5" height="20.454" viewBox="0 0 20.5 20.454">
  <g id="iconfinder_calendar_1814093" transform="translate(-10 -9.9)">
    <g id="Icon-Calendar" transform="translate(10 9.9)">
      <path id="Fill-133" d="M-1.633-446.038H-17.959A2.059,2.059,0,0,1-20-448.078v-14.981a1.891,1.891,0,0,1,1.716-2.041h1.02v1.345h-1.02c-.139,0-.325.278-.325.7v14.981a.713.713,0,0,0,.7.7H-1.587a.713.713,0,0,0,.7-.7v-14.981c0-.417-.232-.7-.325-.7h-1.02V-465.1h1.02A1.923,1.923,0,0,1,.5-463.059v14.981a2.208,2.208,0,0,1-2.133,2.041" transform="translate(20 466.491)" fill="#0030d0"/>
      <path id="Fill-134" d="M-10.5-463.972a.713.713,0,0,1-.7-.7V-467.4a.713.713,0,0,1,.7-.7.713.713,0,0,1,.7.7v2.736a.748.748,0,0,1-.7.7" transform="translate(15.281 468.1)" fill="#0030d0"/>
      <path id="Fill-135" d="M12.9-463.972a.713.713,0,0,1-.7-.7V-467.4a.713.713,0,0,1,.7-.7.713.713,0,0,1,.7.7v2.736a.713.713,0,0,1-.7.7" transform="translate(2.734 468.1)" fill="#0030d0"/>
      <path id="Fill-136" d="M-5.3-465.1H1.471v1.391H-5.3Z" transform="translate(12.118 466.491)" fill="#0030d0"/>
      <path id="Fill-137" d="M-17.1-456.3H.617v1.391H-17.1Z" transform="translate(18.445 461.773)" fill="#0030d0"/>
    </g>
  </g>
</svg>
