<svg xmlns="http://www.w3.org/2000/svg" xmlns:xlink="http://www.w3.org/1999/xlink" width="955" height="961" viewBox="0 0 955 961">
  <defs>
    <clipPath id="clip-path">
      <rect id="Rectangle_185" data-name="Rectangle 185" width="955" height="961" transform="translate(645 1375)" fill="#0030d0"/>
    </clipPath>
  </defs>
  <g id="Mask_Group_11" data-name="Mask Group 11" transform="translate(-645 -1375)" opacity="0.03" clip-path="url(#clip-path)">
    <path id="Path_105" data-name="Path 105" d="M1216.969,891.94a24.1,24.1,0,0,1-27.613-18.273c-3.248-15.024,8.934-28.424,21.521-28.424s23.959,7.716,25.175,21.116c.815,12.181-6.9,23.55-19.082,25.58M1090.682,756.721c-11.369,0-22.74-8.121-23.958-20.708-2.03-16.648,14.213-28.018,28.424-24.363,10.152,2.842,17.055,10.964,17.055,22.332,0,13-9.339,22.739-21.521,22.739m-1.624,268c-11.369,0-22.739-8.121-23.958-20.71-2.031-16.648,14.213-28.017,28.424-24.364,10.151,2.844,17.055,10.966,17.055,22.333,0,13-9.339,22.741-21.521,22.741M979.828,887.474c-3.656,10.964-16.649,17.868-27.612,14.618-12.588-3.248-18.68-17.055-15.024-29.238a21.919,21.919,0,0,1,28.424-14.212c11.775,3.654,17.866,17.055,14.213,28.831m245.666-80.4c-39.387.4-70.248,21.115-97.049,34.515,56.85-123.443,13.807-190.038-37.763-190.443s-71.873,43.449-69.842,95.831c1.218,30.048,11.368,63.345,24.363,92.175-29.643-15.836-62.94-34.109-104.358-28.018-36.14,5.685-69.031,33.3-66.188,71.873,2.437,34.922,32.889,58.88,66.188,61.722,40.606,3.248,71.873-9.746,99.891-23.551-13.4,36.545-28.424,88.52-23.958,123.849,5.684,45.884,42.636,67,78.37,64.157,42.23-3.249,57.661-46.7,58.88-82.838,1.218-37.357-10.963-73.9-25.583-108.011,43.856,16.648,98.268,26.8,131.971,9.338,60.1-30.047,43.855-121.005-34.922-120.6m-7.308,164.454c-15.838-4.467-34.516,8.12-32.079,26.393,1.624,13.806,14.618,22.74,27.611,22.74a24.178,24.178,0,0,0,24.365-24.364c0-12.588-8.123-21.521-19.9-24.77m-284.243,32.079c.407,15.024,14.619,26.394,29.237,25.176,13.4-1.217,23.957-13.806,23.551-26.8a25.273,25.273,0,0,0-7.309-17.461c-15.024-15.43-46.29-6.09-45.479,19.085m16.649-237.139c13.4,3.654,28.423-4.061,32.89-17.461,4.466-13.806-2.842-29.237-16.648-34.109a26.287,26.287,0,0,0-33.7,16.647c-4.467,14.619,2.841,30.862,17.461,34.923m266.377-.813c13.4-2.03,22.333-14.617,20.708-28.018-1.626-14.619-14.214-23.145-27.612-23.145-13.807,0-27.206,14.213-23.551,31.267a26.745,26.745,0,0,0,30.455,19.9m156.738,105.576a26.746,26.746,0,0,0-6.9,4.874c-11.368,11.369-10.963,32.484,1.625,43.042,11.369,9.34,13.4,26.394,6.5,35.734-6.5,9.339-15.43,10.557-28.018,17.055-13.807,7.308-17.462,25.987-10.558,39.389,5.684,10.962,7.307,23.551,1.217,34.921-6.9,13.4-16.648,18.271-31.672,20.708-9.745,1.625-17.056,5.685-21.116,13.807a30.969,30.969,0,0,0,0,28.018,31.874,31.874,0,0,1-1.218,31.266,34.743,34.743,0,0,1-29.237,16.244c-24.364,0-32.485,25.176-24.364,41.825,6.905,14.211,5.686,24.769-.4,32.89-5.28,7.309-15.43,12.993-30.456,12.993-23.958,0-32.079,24.364-24.363,41.013,5.684,11.775,4.06,24.363-3.656,35.733-5.278,7.716-19.9,15.431-33.3,15.431-28.019,1.217-33.7,28.017-23.958,44.666,4.465,7.309,5.278,16.244.405,23.146q-9.136,14.009-18.273,28.018c-2.842,4.467-9.338,4.467-12.587,0-5.279-8.121-12.182-19.085-17.868-27.207-4.06-5.684-4.465-13.4-2.03-19.9,3.249-7.308,2.437-15.836-1.217-23.146-1.624-2.842-3.249-5.686-5.684-7.716-14.62-14.617-30.05-2.03-40.607-18.272-5.28-7.715-5.28-20.709-1.219-29.236,1.625-3.656,2.843-7.716,2.437-11.777a29.237,29.237,0,0,0-15.025-24.769c-4.06-2.438-9.338-3.25-14.211-3.25a23.525,23.525,0,0,1-21.522-10.962c-4.872-6.9-4.872-15.837-1.217-23.552a30.011,30.011,0,0,0,2.436-12.587,28.847,28.847,0,0,0-14.212-24.365,25.192,25.192,0,0,0-12.993-3.654c-14.619,0-21.117-8.12-25.178-15.024-4.466-8.121-4.872-19.9-.812-28.019,6.092-12.588,2.842-30.455-9.745-37.764a28.236,28.236,0,0,0-16.244-3.655c-8.12.407-17.459-3.247-21.116-10.557-4.06-7.308-2.436-15.43,1.626-21.521,9.339-13.4,8.934-34.109-10.153-42.635-14.213-6.5-26.8,3.655-34.108-10.152-3.249-6.091-2.031-15.024,5.278-23.145,15.431-16.648,9.745-44.26-15.024-48.321s-29.643-29.237-13.806-43.856c12.587-11.774,12.995-32.079,1.625-42.229-11.776-10.151-23.959-12.182-23.553-29.237,0-21.521,17.056-18.679,27.613-33.7,8.527-12.182,6.5-31.673-6.092-41.012-14.211-10.558-4.466-36.546,12.994-35.329a29.313,29.313,0,0,0,17.461-4.06,28.069,28.069,0,0,0,10.153-38.171c-11.37-20.3,7.308-42.635,30.047-35.733a29.332,29.332,0,0,0,22.741-2.436c5.684-3.247,11.369-10.151,12.993-16.647a35.658,35.658,0,0,0,.406-11.371,25.968,25.968,0,0,1,41.013-24.77,20.2,20.2,0,0,0,8.121,3.655c11.369,2.436,24.363-2.03,30.86-11.776a20.63,20.63,0,0,0,3.657-7.309c4.06-12.994,15.428-22.333,28.828-25.176a39.229,39.229,0,0,1,37.764,13.4c5.279,6.09,12.181,9.339,21.521,9.339a28.88,28.88,0,0,0,22.333-11.37,33.217,33.217,0,0,1,30.862-12.182c14.618,1.625,22.739,11.37,24.769,22.333,2.031,11.776,10.963,22.333,26.8,22.333,7.309,0,12.587-3.248,17.868-6.5,8.121-4.873,18.679-8.934,30.046-2.843,10.154,5.686,12.589,14.618,13,24.364,0,6.09.405,12.181,3.248,18.272a28.164,28.164,0,0,0,25.177,15.431c15.024,0,27.205-4.06,37.357,6.9,11.37,12.182,2.844,27.206,2.844,43.042a29.656,29.656,0,0,0,8.526,20.3,30.663,30.663,0,0,0,5.685,4.466c9.745,5.278,18.678,6.092,26.8,8.933,15.431,6.091,20.709,23.551,7.309,43.854-10.963,17.054-8.934,32.485,3.655,42.231,8.121,6.091,13.806,9.746,18.272,14.618,12.588,11.37,9.341,32.892-10.151,42.637m-8.934-231.455C1155.653,370.558,723.6,517.958,735.378,857.02c4.061,117.352,75.527,222.522,134.814,319.57,57.254,93.4,135.624,212.777,177.449,276.528,25.986,39.387,55.224,39.793,81.211,0,37.359-56.849,109.232-166.892,162.02-251.353,38.168-60.909,76.339-122.631,105.574-188.818,55.632-126.285,56.445-259.474-31.672-373.171" transform="translate(64.858 894.499)" fill="#0030d0"/>
  </g>
</svg>
