<svg xmlns="http://www.w3.org/2000/svg" width="123.588" height="63.623" viewBox="0 0 123.588 63.623">
  <g id="geo_map" transform="translate(1.217 1)">
    <path id="geo_map-2" data-name="geo_map" d="M362.591,261.932l-.543-.848-.373-.407-.1-.2-.17-.1-.271.136-.271-.678-.882-.543-1.764-.746-.848-.78-.373-.1-.2-.068-.95-.678-.305-.373-.17-.543-.17-1.119-.407-.746-.034-.136h-.237l-.136.17-.068.237-.17.136-.475-.407-.237-1.085-.034-1.221.17-.814.373-.373.373-.068.848.2.373-.034.305-.136.271-.237.78-.95.373-.644.678-1.391-.441-.611-.441-.237-1.052-.1-.543-.237-.78-.95-.475-.373-.17-.034-.136-.034-.17.034-.136.034h-.034l-1.052.237-.543-.034-.441-.2-.136-.509-.17-.136-.237.068-.339.034-.136-.1-.305-.237-.136-.068-.136.034-.237.17-.136.068-.339-.034-.237-.136-.2-.271-.509-1.255-.237-.237-1.255-.339-2-1.391-.712-.339-.543-.339-.2-.577,2.069-5.427.068-.577-.746-.882-1.391-.543-1.526-.271-1.018-.034-1.459.441-.78.1-.611-.237-.17-.305-.339-.746-.2-.339-1.764-2.171-.543-.441-.577-.2-.339.034-.678.305-.339.034-.305-.068-.339-.136-1.967-1.425-.78-.17-.475.644-.1.373-.543,1.153-.271,1.323-.17.17-.237-.2-.441-1.425-.2-.339-.543-.577-.271-.237-.678-.373-.746-.237-.78-.1-.882.068-.543.136-1.391.78-.746.237-1.594.034-.407.475-.339.712-.611.577-.814.271-1.73.068-.814.373-.237.271-.441.611-.271.237-.339.068-.339-.17-.644-.509-.712-.17-.882-.068-.814-.237-.509-.644.034-.712.509-.475.644-.475.407-.577-.2-.712-.78-.407-1.7-.407-.339-.237-.746-.882-.305-.271-1.255-.611-.678-.17-5.122-1.459-.712-.373-1.933-1.832-.882-.611-.17-.271.034-.407.136-.407V217.9l-1.526-.577-.543-.339-.509-.509-.475-.305-.712-.2h-.712l-.848.237-.577.034-.305.136-.475.475-.271.1-.339-.068-1.085-.644-.543-.407-.475-.475-1.018-.678-1.221-.17-3.053.237-.475.17-1.526.848-.577.1-.577-.034-.577-.17-.577-.271-.509-.136-.543-.034-1.255.136-.543-.068-1.187-.339-.644-.068-1.357.2-.644-.068-.475-.271-.814-.814-.475-.305-.95-.305-.237-.17-.17-.271-.271-.577-.17-.237-.543-.2-1.289.237-.644-.271-.543-.475-.577-.271-.611-.136-1.9.237-.543-.136-2.476-1.967-.577-.339L255.2,208.1l-1.052-.814-.543-.271-.644.068-1.153.611-.577.136-.712-.068-4.443-1.662h-1.255l-1.221.305-.441.305-.237.407-1.221,3.188-.1.407.441.1.543.237.848.136.271.136.577.577.984.305.543.271.305.339.373.678.305.712-.068.78.17.271.407.441.17.305.271.644.17.2.475-.611.678.1,1.425.678.577.1.17.068.17.136.305.305.1.068.17.1.339.339.237.068h.2l.577-.17.848-.034,1.832.237,1.289.543.136.1.407.712.034.136.305.2.543.814.441.17.712-.339h.441l.305.678.746,1.323.441,1.526.814,1.221.2.136.2-.068.373-.2.2-.068.373.068.441.17.441.237.305.271.271.17,1.391.237.746.441.577.644.475.814.305.95.984,6.139.068.17.475.475.136.17.068.17.95,3.324.17,1.085.034.848.068.441.2.2.2.17,1.255,2.239.1.339.034.543.2,1.526v2.069l-.034.2-.1.2-.305.407-.1.2-.034.2v.2l-.034.305-.848,1.391-.305.712-1.085.712-.543.712-1.187,2.137,1.9.814.237.034.543-.034.475-.2h.136v.475l.068.136.2.1.543.034.237.1.712.678.2.068.17-.1.746-.611.543-.814.271-.17.712-.305,1.289.509.644-.2.271-.136.237-.034.271.034.237.136.577-.17h.271l.271.17.305.271.407.034.916-.068,3.155,1.255.441-.034.373-.237.543-.814.407-.407.17-.407.17-.984.2-.407.339-.271.475-.136.916-.1,2.51.237.339.17-.136.2-.068.237-.034.237-.068.237-.136.17-.373.305-.136.237.441.271.373.373.339.1.441-.509.237-.136.136.136.1.305.136.271.136.1.543.17.1.1.068.1.1.1.136.068.17.17.543,1.018.237.271,1.323.916.882.746.543.271.543.068.034.136-.237.339-.271.237-.984.475.509.17.373-.034.373.034.339.407.441,1.085.271.17,1.662-.475.509-.034.577.17.509.271.475.475.271.543-.2.644.17.034h.17l.17-.034.984-.407.78-.034,2.917.441.475-.068.339-.136.848-.746.78-.305,1.662-.034.814-.2.712-.339.373-.034.78.2.373-.068.339-.17.305-.305.068-.237.034-.2.034-.17.2-.136h.2l.475.2.882.611.339.1.441-.068.17-.1.1-.17.17-.1.2-.068h.237l.95.577.407.17.373.034.441-.136.373-.407.136-.1h.17l.1.17.068.271.1.17.373.1.271-.237.2-.373.237-.305.373-.17.373.034.78.305,2.646.034.475-.034.17-.271-.2-.271-.678-.305-.136-.339.339-.373,1.764.271h.678l.2-.17.407-.373.237-.136,4.477-3.7.577-.2.577.034,1.221.645.271.034.373-.034.577-.17.271.034.271.305.577.577,2.612.984,1.153.237.441.17v.17l-.237.136-.441.136-.373.509.407.678.746.644,1.255.78,2.68.95.882.1.441-.034.373-.136.916-.577.407-.1h1.357l.339.1.271.271.509.678,1.085.95.373.237,1.085.339.271.271.509.678.339.2.373-.034.17-.237.1-.373.2-.407.373-.237.373.034.339.1.339-.068.339-.475.17-.78.1-.814.17-.645.1-.136.237-.237.1-.136.034-.17.034-.407.034-.2.17-.17.136.034.068-.034Z" transform="translate(-241.6 -206.1)" fill="none" stroke="#fff" stroke-width="2"/>
  </g>
</svg>
