<svg id="Group_83" data-name="Group 83" xmlns="http://www.w3.org/2000/svg" width="45" height="45" viewBox="0 0 45 45">
  <g id="Group_9" data-name="Group 9" transform="translate(-1311.5 -104.5)">
    <path id="iconfinder_phone-call_2561306" d="M15.563,11.767V13.8a1.353,1.353,0,0,1-1.474,1.353,13.385,13.385,0,0,1-5.837-2.076A13.189,13.189,0,0,1,4.194,9.015,13.385,13.385,0,0,1,2.117,3.151,1.353,1.353,0,0,1,3.463,1.676H5.492A1.353,1.353,0,0,1,6.845,2.84a8.684,8.684,0,0,0,.473,1.9,1.353,1.353,0,0,1-.3,1.427l-.859.859A11.451,11.451,0,0,0,7.833,9.251a10.285,10.285,0,0,0,2.38,1.833l.859-.859a1.353,1.353,0,0,1,1.427-.3,8.684,8.684,0,0,0,1.9.473,1.353,1.353,0,0,1,1.163,1.373Z" transform="translate(1324.388 118.5)" fill="#fff"/>
    <path id="iconfinder_phone-call_2561306-2" data-name="iconfinder_phone-call_2561306" d="M10.863,3.705a3.382,3.382,0,0,1,2.672,2.672M10.863,1A6.087,6.087,0,0,1,16.24,6.37" transform="translate(1324.388 118.5)" fill="rgba(209,179,179,0)" stroke="#fff" stroke-linecap="round" stroke-linejoin="round" stroke-width="1"/>
  </g>
  <g id="Ellipse_3" data-name="Ellipse 3" fill="none" stroke="#fff" stroke-width="1">
    <circle cx="22.5" cy="22.5" r="22.5" stroke="none"/>
    <circle cx="22.5" cy="22.5" r="22" fill="none"/>
  </g>
</svg>
