<svg xmlns="http://www.w3.org/2000/svg" width="20.144" height="20.144" viewBox="0 0 20.144 20.144">
  <g id="Icons_with_numbers" data-name="Icons with numbers" transform="translate(0 -1)">
    <g id="Group" transform="translate(0 1)">
      <path id="Oval_322_copy" data-name="Oval 322 copy" d="M114.132,206.429a8.653,8.653,0,0,0,.643-2.686H112.1a15.947,15.947,0,0,1-.33,2.686Zm.643-4.029a8.654,8.654,0,0,0-.643-2.686h-2.361a15.948,15.948,0,0,1,.33,2.686Zm-1.347-4.029h-2.01a10.645,10.645,0,0,0-1.579-3.176A8.763,8.763,0,0,1,113.429,198.372ZM102.305,195.2a8.762,8.762,0,0,0-3.59,3.176h2.011A10.648,10.648,0,0,1,102.305,195.2Zm-4.293,4.519a8.677,8.677,0,0,0-.644,2.686h2.674a16.018,16.018,0,0,1,.331-2.686Zm-.644,4.029a8.677,8.677,0,0,0,.644,2.686h2.361a16.017,16.017,0,0,1-.331-2.686Zm1.347,4.029a8.763,8.763,0,0,0,3.59,3.176,10.648,10.648,0,0,1-1.579-3.176ZM96,203.072V202.4h.022a10.074,10.074,0,0,1,9.379-9.379V193h1.343v.021a10.075,10.075,0,0,1,9.379,9.379h.021v1.343h-.021a10.075,10.075,0,0,1-9.379,9.379v.021H105.4v-.021a10.074,10.074,0,0,1-9.379-9.379H96Zm13.839,7.876a8.763,8.763,0,0,0,3.59-3.176h-2.01A10.646,10.646,0,0,1,109.839,210.948Zm.195-12.577c-.721-2.091-1.908-3.574-3.29-3.94v3.94Zm-4.633-3.94c-1.382.367-2.569,1.849-3.29,3.94h3.29v-3.94Zm0,13.341v3.94c-1.382-.367-2.569-1.849-3.29-3.94Zm1.343,3.94v-3.94h3.29C109.313,209.863,108.125,211.346,106.744,211.713Zm3.669-5.283h-3.669v-2.686h4.015A15.134,15.134,0,0,1,110.413,206.429Zm-5.012-2.686v2.686h-3.669a15.133,15.133,0,0,1-.346-2.686Zm5.358-1.343h-4.015v-2.686h3.669A15.134,15.134,0,0,1,110.759,202.4Zm-5.358-2.686V202.4h-4.015a15.134,15.134,0,0,1,.346-2.686Zm0,0" transform="translate(-96 -193)" fill="#fff" fill-rule="evenodd"/>
    </g>
  </g>
</svg>
