<svg id="LinkedIn" xmlns="http://www.w3.org/2000/svg" width="39.99" height="39.99" viewBox="0 0 39.99 39.99">
  <path id="Oval-1" d="M19.995,39.99A19.995,19.995,0,1,0,0,19.995,19.995,19.995,0,0,0,19.995,39.99Zm0-2.4a17.6,17.6,0,1,0-17.6-17.6A17.6,17.6,0,0,0,19.995,37.591Zm-8.8-21.5V27.72h3.767V16.09ZM13.328,10.4a2.012,2.012,0,1,0-.049,4.019H13.3a2.012,2.012,0,1,0,.025-4.019ZM24.455,16.09a3.726,3.726,0,0,0-3.4,1.921V16.364H17.292c.05,1.091,0,11.629,0,11.629H21.06V21.5a2.712,2.712,0,0,1,.124-.943,2.068,2.068,0,0,1,1.933-1.413c1.364,0,1.909,1.066,1.909,2.629v6.222h3.767V21.325C28.793,17.753,26.934,16.09,24.455,16.09Zm0,0" fill="#c9c9c9" fill-rule="evenodd"/>
</svg>
