<svg xmlns="http://www.w3.org/2000/svg" width="130.95" height="75.486" viewBox="0 0 130.95 75.486">
  <g id="logo" transform="translate(-735.142 -500.501)">
    <path id="Path_1" data-name="Path 1" d="M772.168,530.581a1.852,1.852,0,0,1-2.122-1.4,1.819,1.819,0,1,1,2.122,1.4m-9.7-10.391a1.822,1.822,0,0,1-1.841-1.591,1.756,1.756,0,0,1,2.184-1.872,1.718,1.718,0,0,1,1.311,1.716,1.668,1.668,0,0,1-1.654,1.747m-.125,20.595a1.822,1.822,0,0,1-1.841-1.591,1.756,1.756,0,0,1,2.184-1.872,1.718,1.718,0,0,1,1.311,1.716,1.668,1.668,0,0,1-1.654,1.747m-8.394-10.547a1.8,1.8,0,0,1-2.122,1.123,1.76,1.76,0,0,1-1.155-2.247,1.684,1.684,0,0,1,2.184-1.092,1.769,1.769,0,0,1,1.092,2.216m18.878-6.178c-3.027.031-5.4,1.623-7.458,2.652,4.369-9.486,1.061-14.6-2.9-14.635s-5.523,3.339-5.367,7.364a20.069,20.069,0,0,0,1.872,7.083c-2.278-1.217-4.837-2.621-8.019-2.153-2.777.437-5.3,2.559-5.086,5.523a5.355,5.355,0,0,0,5.086,4.743,14.076,14.076,0,0,0,7.676-1.81c-1.03,2.808-2.184,6.8-1.841,9.517a5.438,5.438,0,0,0,6.022,4.93c3.245-.25,4.431-3.589,4.525-6.366a19.763,19.763,0,0,0-1.966-8.3c3.37,1.279,7.551,2.059,10.141.718,4.618-2.309,3.37-9.3-2.684-9.267m-.562,12.638a1.936,1.936,0,0,0-2.465,2.028,2.09,2.09,0,0,0,2.122,1.747,1.858,1.858,0,0,0,1.872-1.872,1.937,1.937,0,0,0-1.529-1.9m-21.843,2.465a2.029,2.029,0,0,0,4.057-.125,1.942,1.942,0,0,0-.562-1.342,2.058,2.058,0,0,0-3.495,1.467m1.279-18.223a2.079,2.079,0,0,0,1.248-3.963,2.02,2.02,0,0,0-2.59,1.279,2.105,2.105,0,0,0,1.342,2.684m20.47-.062a1.922,1.922,0,0,0,1.591-2.153,2.042,2.042,0,0,0-2.122-1.779,1.966,1.966,0,0,0-1.81,2.4,2.055,2.055,0,0,0,2.34,1.529m12.045,8.113a2.054,2.054,0,0,0-.53.375,2.328,2.328,0,0,0,.125,3.308,2.132,2.132,0,0,1,.5,2.746c-.5.718-1.186.811-2.153,1.311a2.285,2.285,0,0,0-.811,3.027,2.824,2.824,0,0,1,.094,2.683A2.888,2.888,0,0,1,779,544.03a2.028,2.028,0,0,0-1.623,1.061,2.38,2.38,0,0,0,0,2.153,2.449,2.449,0,0,1-.094,2.4,2.67,2.67,0,0,1-2.247,1.248,2.171,2.171,0,0,0-1.872,3.214,2.276,2.276,0,0,1-.031,2.527,2.769,2.769,0,0,1-2.34,1,2.145,2.145,0,0,0-1.872,3.152,2.663,2.663,0,0,1-.281,2.746,3.441,3.441,0,0,1-2.559,1.186,2.2,2.2,0,0,0-1.841,3.432,1.605,1.605,0,0,1,.031,1.779l-1.4,2.153a.583.583,0,0,1-.967,0c-.406-.624-.936-1.467-1.373-2.091a1.66,1.66,0,0,1-.156-1.529,2.209,2.209,0,0,0-.53-2.372c-1.123-1.123-2.309-.156-3.12-1.4a2.476,2.476,0,0,1-.094-2.247,1.819,1.819,0,0,0,.187-.9,2.247,2.247,0,0,0-1.155-1.9,2.165,2.165,0,0,0-1.092-.25,1.808,1.808,0,0,1-1.654-.842,1.788,1.788,0,0,1-.094-1.81,2.305,2.305,0,0,0,.187-.967,2.217,2.217,0,0,0-1.092-1.872,1.936,1.936,0,0,0-1-.281,2.073,2.073,0,0,1-1.935-1.154,2.484,2.484,0,0,1-.062-2.153,2.287,2.287,0,0,0-.749-2.9,2.17,2.17,0,0,0-1.248-.281,1.732,1.732,0,0,1-1.623-.811,1.574,1.574,0,0,1,.125-1.654,2.123,2.123,0,0,0-.78-3.276c-1.092-.5-2.059.281-2.621-.78a1.586,1.586,0,0,1,.406-1.779,2.164,2.164,0,0,0-1.154-3.713,1.9,1.9,0,0,1-1.061-3.37,2.257,2.257,0,0,0,.125-3.245c-.9-.78-1.841-.936-1.81-2.247,0-1.654,1.311-1.435,2.122-2.59a2.374,2.374,0,0,0-.468-3.152,1.561,1.561,0,0,1,1-2.715,2.253,2.253,0,0,0,1.342-.312,2.157,2.157,0,0,0,.78-2.933,1.908,1.908,0,0,1,2.309-2.746,2.167,2.167,0,0,0,2.746-1.466,2.741,2.741,0,0,0,.031-.874,2,2,0,0,1,3.152-1.9,1.553,1.553,0,0,0,.624.281,2.319,2.319,0,0,0,2.371-.9,1.585,1.585,0,0,0,.281-.562,2.92,2.92,0,0,1,2.215-1.935,3.014,3.014,0,0,1,2.9,1.03,2.058,2.058,0,0,0,1.654.718,2.219,2.219,0,0,0,1.716-.874,2.553,2.553,0,0,1,2.372-.936,2.069,2.069,0,0,1,1.9,1.716,2,2,0,0,0,2.059,1.716,2.523,2.523,0,0,0,1.373-.5,2.236,2.236,0,0,1,2.309-.218,2.008,2.008,0,0,1,1,1.872,3.191,3.191,0,0,0,.25,1.4,2.164,2.164,0,0,0,1.935,1.186c1.155,0,2.091-.312,2.871.531.874.936.219,2.091.219,3.308a2.279,2.279,0,0,0,.655,1.56,2.357,2.357,0,0,0,.437.343,11.351,11.351,0,0,0,2.059.686c1.186.468,1.591,1.81.562,3.37-.843,1.311-.687,2.5.281,3.245a10.414,10.414,0,0,1,1.4,1.123c.967.874.718,2.528-.78,3.276m-.687-17.786c-16.07-20.688-49.271-9.361-48.366,16.694.312,9.018,5.8,17.1,10.36,24.557,4.4,7.177,10.422,16.351,13.636,21.25,2,3.027,4.244,3.058,6.241,0,2.871-4.369,8.394-12.825,12.45-19.315a115.712,115.712,0,0,0,8.113-14.51c4.275-9.7,4.337-19.939-2.434-28.676" fill="#fff"/>
    <path id="Path_2" data-name="Path 2" d="M951.269,567.518h2.215q1.31,0,1.311,1.217v3.744a10.963,10.963,0,0,1-3.745.593,4.678,4.678,0,0,1-1.81-.343,3.276,3.276,0,0,1-1.311-1.03,4.739,4.739,0,0,1-.78-1.591,8.463,8.463,0,0,1-.25-2.059,6.223,6.223,0,0,1,.374-2.278,4.467,4.467,0,0,1,1-1.623,3.382,3.382,0,0,1,1.435-.936,4.371,4.371,0,0,1,1.685-.312,5.952,5.952,0,0,1,3.37,1.03,1.635,1.635,0,0,1-.312.811,2.137,2.137,0,0,1-.593.593,4.123,4.123,0,0,0-2.4-.811c-1.716,0-2.59,1.155-2.59,3.495s.842,3.495,2.559,3.495a6.218,6.218,0,0,0,1.529-.187v-1.841a1.645,1.645,0,0,1,.031-.406h-.967a1.1,1.1,0,0,1-.718-.187.91.91,0,0,1-.218-.655,3.489,3.489,0,0,1,.187-.718" transform="translate(-145.681 -42.928)" fill="#fff"/>
    <path id="Path_3" data-name="Path 3" d="M979.972,570.764v.874l1-.031h3.495a4,4,0,0,1-.031.686c-.094.624-.531.905-1.217.905h-4.025a1.015,1.015,0,0,1-.811-.312,1.249,1.249,0,0,1-.281-.843v-8.55l.094-.094h5.96a3.173,3.173,0,0,1,.062.78,2.67,2.67,0,0,1-.156.843h-4.088v2.465h3.37a2.718,2.718,0,0,1,.125.78,1.949,1.949,0,0,1-.125.78H980v1.716Z" transform="translate(-167.146 -43.272)" fill="#fff"/>
    <path id="Path_4" data-name="Path 4" d="M1007.441,567.986c0-2.4-.718-3.588-2.122-3.588s-2.122,1.186-2.122,3.588.718,3.588,2.122,3.588c1.435-.031,2.122-1.217,2.122-3.588m-4.712,4.213a5.23,5.23,0,0,1-1.529-4.213,7.5,7.5,0,0,1,.281-2.153,4.779,4.779,0,0,1,.811-1.591,3.2,3.2,0,0,1,1.311-1,4.362,4.362,0,0,1,1.747-.343,4.474,4.474,0,0,1,1.747.343,3.674,3.674,0,0,1,1.311,1,4.779,4.779,0,0,1,.811,1.591,8.4,8.4,0,0,1,0,4.306,4.779,4.779,0,0,1-.811,1.591,3.2,3.2,0,0,1-1.311,1,4.361,4.361,0,0,1-1.747.343,4.144,4.144,0,0,1-2.621-.874" transform="translate(-183.037 -42.928)" fill="#fff"/>
    <path id="Path_5" data-name="Path 5" d="M1034.872,564.735v3.152c.5-.031.936-.031,1.311-.031a1.561,1.561,0,0,0,0-3.12h-.78a1.516,1.516,0,0,1-.531,0m4.837,1.56a2.887,2.887,0,0,1-.125.9,2.805,2.805,0,0,1-.375.749,3.339,3.339,0,0,1-.562.593,2.611,2.611,0,0,1-.718.375,1.507,1.507,0,0,1,.624.437,3.265,3.265,0,0,1,.437.811l.53,1.435a6.086,6.086,0,0,0,.281.624,1.27,1.27,0,0,0,.374.437,1.414,1.414,0,0,1-.53.406,2.043,2.043,0,0,1-.78.156,1.028,1.028,0,0,1-.687-.25,3.126,3.126,0,0,1-.468-.874l-.593-1.716a2.074,2.074,0,0,0-.468-.78,1.174,1.174,0,0,0-.874-.25h-.874V573.1c-.125.031-.281.031-.437.062-.156,0-.343.031-.53.031a8.283,8.283,0,0,1-.936-.062v-9.7l.094-.094c.78-.031,1.435-.031,1.966-.031h1.311a3.651,3.651,0,0,1,2.465.78,2.84,2.84,0,0,1,.874,2.215" transform="translate(-204.915 -43.203)" fill="#fff"/>
    <path id="Path_6" data-name="Path 6" d="M1062.468,567.518h2.216q1.31,0,1.311,1.217v3.744a10.964,10.964,0,0,1-3.745.593,4.679,4.679,0,0,1-1.81-.343,3.277,3.277,0,0,1-1.311-1.03,4.741,4.741,0,0,1-.78-1.591,8.462,8.462,0,0,1-.25-2.059,6.223,6.223,0,0,1,.374-2.278,4.929,4.929,0,0,1,1-1.623,3.379,3.379,0,0,1,1.435-.936,4.369,4.369,0,0,1,1.685-.312,5.952,5.952,0,0,1,3.37,1.03,1.633,1.633,0,0,1-.312.811,2.136,2.136,0,0,1-.593.593,4.123,4.123,0,0,0-2.4-.811c-1.716,0-2.59,1.155-2.59,3.495s.843,3.495,2.559,3.495a6.216,6.216,0,0,0,1.529-.187v-1.841a1.645,1.645,0,0,1,.031-.406h-.968a1.1,1.1,0,0,1-.718-.187.91.91,0,0,1-.218-.655,3.513,3.513,0,0,1,.187-.718" transform="translate(-222.182 -42.928)" fill="#fff"/>
    <path id="Path_7" data-name="Path 7" d="M1089.4,573.129v-9.767a4.135,4.135,0,0,1,.936-.062,8.992,8.992,0,0,1,1,.062v9.767a4.738,4.738,0,0,1-1,.062,2.808,2.808,0,0,1-.936-.062" transform="translate(-243.716 -43.203)" fill="#fff"/>
    <path id="Path_8" data-name="Path 8" d="M1102.533,569.385H1105l-.437-1.467c-.312-1.092-.593-2.028-.78-2.777h-.094c-.094.406-.281,1.217-.624,2.434Zm2.964,1.529h-3.4l-.687,2.247a3.184,3.184,0,0,1-.842.062,2.531,2.531,0,0,1-.9-.125L1099.6,573l3.183-9.642a6.79,6.79,0,0,1,1.155-.062,5.152,5.152,0,0,1,1.061.094l3.151,9.642a1.969,1.969,0,0,1-1,.25,1.239,1.239,0,0,1-.842-.219,1.917,1.917,0,0,1-.437-.811Z" transform="translate(-250.733 -43.203)" fill="#fff"/>
    <path id="Path_9" data-name="Path 9" d="M1138.2,563.2l.094.094v9.736a5.382,5.382,0,0,1-1.123.094c-.437,0-.842-.031-1.186-.062l-2.621-5.554c-.375-.842-.655-1.5-.874-2h-.062c.094,1.342.156,2.652.156,3.9v3.651a4.12,4.12,0,0,1-.905.063,6.709,6.709,0,0,1-.874-.062v-9.767a5.256,5.256,0,0,1,1.092-.094c.437,0,.843.031,1.186.062l2.621,5.554.936,2.122h.031c-.094-1.373-.156-2.683-.156-3.932v-2.621a1.306,1.306,0,0,1,.25-.9,1.022,1.022,0,0,1,.811-.281Z" transform="translate(-272.197 -43.135)" fill="#fff"/>
    <path id="Path_10" data-name="Path 10" d="M949.862,611.183v7.146a4.58,4.58,0,0,1-.967.062,8.4,8.4,0,0,1-.967-.062v-8.207h-2.465a3.293,3.293,0,0,1-.062-.811,6.579,6.579,0,0,1,.063-.811H952.3a3.145,3.145,0,0,1,.094.78.775.775,0,0,1-.25.624,1.305,1.305,0,0,1-.78.187H949.8Z" transform="translate(-144.649 -74.299)" fill="#fff"/>
    <path id="Path_11" data-name="Path 11" d="M973.572,609.867v3.152c.5-.031.936-.031,1.31-.031a1.56,1.56,0,0,0,0-3.12h-1.31m4.837,1.56a2.883,2.883,0,0,1-.125.9,2.8,2.8,0,0,1-.374.749,3.339,3.339,0,0,1-.562.593,2.609,2.609,0,0,1-.718.374,1.507,1.507,0,0,1,.624.437,3.263,3.263,0,0,1,.437.811l.53,1.435a6.079,6.079,0,0,0,.281.624,1.27,1.27,0,0,0,.375.437,1.157,1.157,0,0,1-.531.406,2.043,2.043,0,0,1-.78.156,1.028,1.028,0,0,1-.687-.25,3.126,3.126,0,0,1-.468-.874l-.593-1.716a2.075,2.075,0,0,0-.468-.78,1.176,1.176,0,0,0-.874-.281H973.6V618.2c-.125.031-.281.031-.437.062-.156,0-.343.031-.53.031a8.317,8.317,0,0,1-.936-.062v-9.7l.094-.094c.78-.031,1.435-.031,1.966-.031h1.311a3.651,3.651,0,0,1,2.465.78,2.866,2.866,0,0,1,.874,2.247" transform="translate(-162.743 -74.231)" fill="#fff"/>
    <path id="Path_12" data-name="Path 12" d="M1000.164,614.516h2.465l-.437-1.467c-.312-1.092-.593-2.028-.78-2.777h-.094c-.094.406-.281,1.217-.624,2.434Zm2.933,1.5h-3.4l-.687,2.247a3.182,3.182,0,0,1-.842.062,2.529,2.529,0,0,1-.9-.125l-.062-.093,3.183-9.642a6.8,6.8,0,0,1,1.155-.062,5.155,5.155,0,0,1,1.061.094l3.152,9.642a2.059,2.059,0,0,1-1,.25,1.294,1.294,0,0,1-.843-.218,1.915,1.915,0,0,1-.437-.811Z" transform="translate(-180.286 -74.23)" fill="#fff"/>
    <path id="Path_13" data-name="Path 13" d="M1027.912,616.469l2.091-8.144a2.813,2.813,0,0,1,.811-.062,2.644,2.644,0,0,1,.9.125l.094.125-2.777,9.611a8.371,8.371,0,0,1-1.31.062,2.217,2.217,0,0,1-1.061-.187,1.047,1.047,0,0,1-.468-.718l-2.5-8.8a2.946,2.946,0,0,1,1.123-.281.991.991,0,0,1,.718.218,1.541,1.541,0,0,1,.374.718l1.28,4.618c.187.749.406,1.591.593,2.528,0,.125.031.187.125.187" transform="translate(-198.517 -74.093)" fill="#fff"/>
    <path id="Path_14" data-name="Path 14" d="M1055.4,615.864v.874l1-.031h3.495a4.014,4.014,0,0,1-.031.686c-.094.624-.531.9-1.217.9h-4.057a1.015,1.015,0,0,1-.811-.312,1.25,1.25,0,0,1-.281-.843v-8.55l.094-.094h5.96a3.167,3.167,0,0,1,.062.78,2.675,2.675,0,0,1-.156.842h-4.088v2.465h3.37a2.726,2.726,0,0,1,.125.78,1.952,1.952,0,0,1-.125.78H1055.4v1.716Z" transform="translate(-219.018 -74.299)" fill="#fff"/>
    <path id="Path_15" data-name="Path 15" d="M1081.776,616.538h2.652a4.392,4.392,0,0,1-.062.718c-.094.624-.53.936-1.248.936h-3.495a1.015,1.015,0,0,1-.811-.312,1.268,1.268,0,0,1-.312-.843v-8.643l.094-.094h.718a1.145,1.145,0,0,1,.843.281,1.291,1.291,0,0,1,.281.936v7.052c.437,0,.874-.031,1.342-.031" transform="translate(-236.217 -74.162)" fill="#fff"/>
    <path id="Path_16" data-name="Path 16" d="M951.269,657.718h2.215q1.31,0,1.311,1.217v3.744a10.963,10.963,0,0,1-3.745.593,4.678,4.678,0,0,1-1.81-.343,3.276,3.276,0,0,1-1.311-1.03,4.739,4.739,0,0,1-.78-1.591,8.464,8.464,0,0,1-.25-2.059,6.222,6.222,0,0,1,.374-2.278,4.465,4.465,0,0,1,1-1.623,3.381,3.381,0,0,1,1.435-.936,4.372,4.372,0,0,1,1.685-.312,5.952,5.952,0,0,1,3.37,1.03,1.635,1.635,0,0,1-.312.811,2.135,2.135,0,0,1-.593.593,4.124,4.124,0,0,0-2.4-.811c-1.716,0-2.59,1.155-2.59,3.495s.842,3.495,2.559,3.495a6.218,6.218,0,0,0,1.529-.187v-1.841a1.647,1.647,0,0,1,.031-.406h-.967a1.1,1.1,0,0,1-.718-.187.91.91,0,0,1-.218-.655,4.922,4.922,0,0,1,.187-.718" transform="translate(-145.681 -104.982)" fill="#fff"/>
    <path id="Path_17" data-name="Path 17" d="M980.072,655.035v3.152c.5-.031.936-.031,1.311-.031a1.561,1.561,0,0,0,0-3.12h-1.311m4.837,1.56a2.885,2.885,0,0,1-.125.9,2.8,2.8,0,0,1-.374.749,3.341,3.341,0,0,1-.562.593,2.614,2.614,0,0,1-.718.375,1.506,1.506,0,0,1,.624.437,3.263,3.263,0,0,1,.437.811l.531,1.435a6.04,6.04,0,0,0,.281.624,1.271,1.271,0,0,0,.374.437,1.156,1.156,0,0,1-.531.406,2.043,2.043,0,0,1-.78.156,1.028,1.028,0,0,1-.687-.25,3.128,3.128,0,0,1-.468-.874l-.593-1.716a2.072,2.072,0,0,0-.468-.78,1.173,1.173,0,0,0-.874-.25H980.1V663.4c-.125.031-.281.031-.437.063-.156,0-.343.031-.531.031a8.293,8.293,0,0,1-.936-.062v-9.7l.094-.094c.78-.031,1.435-.031,1.966-.031h1.311a3.65,3.65,0,0,1,2.465.78,2.751,2.751,0,0,1,.874,2.215" transform="translate(-167.214 -105.326)" fill="#fff"/>
    <path id="Path_18" data-name="Path 18" d="M1009.672,658.186c0-2.4-.718-3.588-2.122-3.588s-2.122,1.186-2.122,3.588.718,3.588,2.122,3.588,2.122-1.186,2.122-3.588m-4.743,4.213a5.23,5.23,0,0,1-1.529-4.213,7.5,7.5,0,0,1,.281-2.153,4.781,4.781,0,0,1,.811-1.591,3.2,3.2,0,0,1,1.311-1,4.362,4.362,0,0,1,1.747-.343,4.475,4.475,0,0,1,1.747.343,3.674,3.674,0,0,1,1.311,1,4.782,4.782,0,0,1,.811,1.591,8.393,8.393,0,0,1,0,4.306,4.782,4.782,0,0,1-.811,1.591,3.2,3.2,0,0,1-1.311,1,4.362,4.362,0,0,1-1.747.343,3.97,3.97,0,0,1-2.621-.874" transform="translate(-184.551 -104.982)" fill="#fff"/>
    <path id="Path_19" data-name="Path 19" d="M1042.358,653.562v6.272a3.641,3.641,0,0,1-.967,2.746,3.765,3.765,0,0,1-2.777.967,3.37,3.37,0,0,1-3.713-3.713v-6.241l.094-.094h.718a1.144,1.144,0,0,1,.843.281,1.292,1.292,0,0,1,.281.936v5.117c0,1.467.593,2.184,1.81,2.184s1.81-.718,1.81-2.184v-6.272a4.575,4.575,0,0,1,.967-.062,8.278,8.278,0,0,1,.936.062" transform="translate(-206.222 -105.258)" fill="#fff"/>
    <path id="Path_20" data-name="Path 20" d="M1067.135,655.067v3.651h.936a3.58,3.58,0,0,0,.655-.062,1.055,1.055,0,0,0,.468-.187,1.128,1.128,0,0,0,.344-.406,2.341,2.341,0,0,0,.218-.562,2.127,2.127,0,0,0,.062-.624,4.651,4.651,0,0,0-.062-.655,1.987,1.987,0,0,0-.25-.593,1.162,1.162,0,0,0-.468-.406,1.625,1.625,0,0,0-.718-.156h-1.186m1.311,5.117h-1.311v3.245a4.58,4.58,0,0,1-.968.062,8.406,8.406,0,0,1-.967-.062v-9.7l.094-.094c.78-.031,1.435-.031,1.935-.031h1.186a3.528,3.528,0,0,1,2.465.842,3.106,3.106,0,0,1,.936,2.434,3.885,3.885,0,0,1-.25,1.4,2.981,2.981,0,0,1-.686,1.03,2.589,2.589,0,0,1-1.061.624,3.6,3.6,0,0,1-1.373.25" transform="translate(-227.067 -105.326)" fill="#fff"/>
  </g>
</svg>
