<svg xmlns="http://www.w3.org/2000/svg" width="29.5" height="26.55" viewBox="0 0 29.5 26.55">
  <g id="Page-1" transform="translate(-2 -3)">
    <g id="icon-70-document-file-pdf" transform="translate(2 3)">
      <path id="document-file-pdf" d="M20.683,12.833V9.883h0L14.783,3H3.969A1.971,1.971,0,0,0,2,4.974v22.6A1.967,1.967,0,0,0,3.964,29.55H18.719a1.965,1.965,0,0,0,1.964-1.958V25.617h7.86A2.953,2.953,0,0,0,31.5,22.668V15.782a2.946,2.946,0,0,0-2.957-2.949ZM19.7,25.617V27.59a.98.98,0,0,1-.983.977H3.967a.986.986,0,0,1-.983-.979V4.962a.985.985,0,0,1,.979-.979H13.8V8.894a1.961,1.961,0,0,0,1.965,1.972H19.7v1.967H11.84a2.953,2.953,0,0,0-2.957,2.949v6.886a2.946,2.946,0,0,0,2.957,2.949ZM14.783,4.475V8.891a.989.989,0,0,0,.98.992h3.642L14.783,4.475Zm-2.955,9.342a1.965,1.965,0,0,0-1.961,1.959v6.9a1.966,1.966,0,0,0,1.961,1.959H28.555a1.965,1.965,0,0,0,1.961-1.959v-6.9a1.966,1.966,0,0,0-1.961-1.959Zm12.789,4.917V16.767H28.55v-.983H23.633v6.883h.983v-2.95h2.95v-.983ZM11.833,17.75v4.917h.983v-2.95h1.962a1.967,1.967,0,1,0,0-3.933H11.833V17.75Zm.983-.983v1.967h1.968a.983.983,0,0,0,0-1.967Zm4.917-.983v6.883h2.945a1.965,1.965,0,0,0,1.971-1.972V17.756a1.97,1.97,0,0,0-1.971-1.972Zm.983.983v4.917h1.968a.98.98,0,0,0,.982-.983V17.75a.98.98,0,0,0-.982-.983Z" transform="translate(-2 -3)" fill="#707070" fill-rule="evenodd"/>
    </g>
  </g>
</svg>
