<svg xmlns="http://www.w3.org/2000/svg" width="20.636" height="20.717" viewBox="0 0 20.636 20.717">
  <g id="iconfinder_phone1_172517_1_" data-name="iconfinder_phone1_172517 (1)" transform="translate(0.05 0.132)">
    <rect id="Rectangle_168" data-name="Rectangle 168" width="20" height="20" transform="translate(0.495 0.495)" fill="none"/>
    <path id="Path_50" data-name="Path 50" d="M12.951,15.012s1.656-.948,2.09-1.176a1.243,1.243,0,0,1,1.152-.12c.412.252,3.871,2.553,4.162,2.757a.986.986,0,0,1,.031,1.358c-.4.571-2.239,2.829-3.019,2.8s-4.028-.1-10.15-6.221S1.025,5.045,1,4.264s2.233-2.621,2.8-3.02a1,1,0,0,1,1.359.032c.231.319,2.505,3.768,2.755,4.163A1.229,1.229,0,0,1,7.8,6.591c-.227.434-1.176,2.09-1.176,2.09a20.312,20.312,0,0,0,2.929,3.4A20.408,20.408,0,0,0,12.951,15.012Z" transform="translate(-0.549 -0.549)" fill="none" stroke="#0030d0" stroke-miterlimit="10" stroke-width="1"/>
  </g>
</svg>
