<svg xmlns="http://www.w3.org/2000/svg" width="22.239" height="23.631" viewBox="0 0 22.239 23.631">
  <path id="Path_51" data-name="Path 51" d="M20.338,20.072a23.036,23.036,0,0,1-.05-2.346A4.592,4.592,0,0,0,21.546,15c.32-.026.824-.338.972-1.57a1.15,1.15,0,0,0-.43-1.151c.521-1.565,1.6-6.408-2-6.909a2.832,2.832,0,0,0-2.553-.98c-4.934.091-5.529,3.726-4.448,7.889a1.152,1.152,0,0,0-.43,1.151c.148,1.232.652,1.544.972,1.57a4.582,4.582,0,0,0,1.288,2.724,23.042,23.042,0,0,1-.051,2.346C13.892,22.7,7.3,21.96,7,27.022H28.177C27.873,21.96,21.314,22.7,20.338,20.072Z" transform="translate(-6.469 -3.891)" fill="none" stroke="#0030d0" stroke-linecap="round" stroke-miterlimit="10" stroke-width="1"/>
</svg>
