<svg id="Component_20_3" data-name="Component 20 – 3" xmlns="http://www.w3.org/2000/svg" width="17.922" height="22.402" viewBox="0 0 17.922 22.402">
  <path id="Path_31" data-name="Path 31" d="M35.263,20.656c-.508-.418-1.822-1.344-1.942-1.434a4.384,4.384,0,0,1-1.553-5.048,1.123,1.123,0,0,0-.836-1.344,1.093,1.093,0,0,0-.747.09,8.893,8.893,0,0,0-4.869,8.9,4.859,4.859,0,0,1-.806-2.39,1.114,1.114,0,0,0-1.225-1.016,1.185,1.185,0,0,0-.836.508C20.6,21.791,20,23.493,20,26.241a8.961,8.961,0,0,0,17.922,0A6.911,6.911,0,0,0,35.263,20.656Zm-6.3,12.336A6.705,6.705,0,0,1,22.24,26.3v-.03a8.033,8.033,0,0,1,.806-3.883,4.445,4.445,0,0,0,3.674,2.718A1.129,1.129,0,0,0,27.856,24a.658.658,0,0,0-.03-.239c-.956-4.51.747-6.78,1.493-7.5a6.694,6.694,0,0,0,2.509,4.63c.239.209,1.613,1.165,1.971,1.493a4.769,4.769,0,0,1,1.882,3.883,6.655,6.655,0,0,1-6.631,6.721Z" transform="translate(-20 -12.8)" fill="#fff"/>
</svg>
