<svg xmlns="http://www.w3.org/2000/svg" width="33" height="23.571" viewBox="0 0 33 23.571">
  <path id="iconfinder_back-alt_134226_4_" data-name="iconfinder_back-alt_134226 (4)" d="M32.643,15.429H10.014l5.445-5.445a2.234,2.234,0,0,0,.684-1.626A2.384,2.384,0,0,0,13.786,6a2.223,2.223,0,0,0-1.626.684L2.78,16.063A2.26,2.26,0,0,0,2,17.786a2.137,2.137,0,0,0,.761,1.705l9.4,9.4a2.223,2.223,0,0,0,1.626.684,2.384,2.384,0,0,0,2.357-2.357,2.234,2.234,0,0,0-.684-1.626l-5.445-5.445H32.643a2.357,2.357,0,1,0,0-4.714Z" transform="translate(-2 -6)" fill="#d9d9d9"/>
</svg>
