<svg id="Page-1" xmlns="http://www.w3.org/2000/svg" width="39.99" height="39.99" viewBox="0 0 39.99 39.99">
  <g id="Twitter">
    <path id="Oval-1" d="M19.995,39.99A19.995,19.995,0,1,0,0,19.995,19.995,19.995,0,0,0,19.995,39.99Zm0-2.4a17.6,17.6,0,1,0-17.6-17.6A17.6,17.6,0,0,0,19.995,37.591Zm-.254-21.151.038.657-.636-.08A10.176,10.176,0,0,1,13.091,13.9l-.839-.872-.216.644a4,4,0,0,0,.788,3.97c.509.563.394.644-.483.309-.305-.107-.572-.188-.6-.148a4.983,4.983,0,0,0,.458,1.8,4.189,4.189,0,0,0,1.742,1.717l.623.309-.737.013c-.712,0-.737.013-.661.3a3.91,3.91,0,0,0,2.377,2.2l.788.282-.687.429a6.926,6.926,0,0,1-3.407.993,3.612,3.612,0,0,0-1.043.107,9.494,9.494,0,0,0,2.454,1.18,10.331,10.331,0,0,0,8.34-.993,11.542,11.542,0,0,0,4.234-5.2,14.367,14.367,0,0,0,.865-4.024c0-.617.038-.7.75-1.435a8.643,8.643,0,0,0,.89-1.033c.127-.255.114-.255-.534-.027-1.081.4-1.233.349-.7-.255a3.935,3.935,0,0,0,.865-1.435c0-.04-.191.027-.407.148a6.911,6.911,0,0,1-1.119.456l-.687.228-.623-.443a5.1,5.1,0,0,0-1.081-.59,4.163,4.163,0,0,0-2.225.054,3.844,3.844,0,0,0-2.479,3.863Zm0,0" fill="#fff" fill-rule="evenodd"/>
  </g>
</svg>
