<svg xmlns="http://www.w3.org/2000/svg" width="88.313" height="62.22" viewBox="0 0 88.313 62.22">
  <g id="Group_16" data-name="Group 16" transform="translate(-5.844 -971.253)">
    <path id="Path_34" data-name="Path 34" d="M51.656,971.253a1.2,1.2,0,0,0-1.187,1.219v6.563a1.2,1.2,0,0,0,2.406,0v-6.562a1.2,1.2,0,0,0-1.219-1.219Zm-18.25,6.406a1.2,1.2,0,0,0-.844,2.063l4.625,4.656a1.215,1.215,0,1,0,1.719-1.719l-4.656-4.625a1.2,1.2,0,0,0-.844-.375Zm37.375,0a1.2,1.2,0,0,0-.813.375l-4.656,4.625a1.215,1.215,0,1,0,1.719,1.719l4.625-4.656a1.2,1.2,0,0,0-.875-2.062Zm-19.5,5.219a15.114,15.114,0,0,0-14.25,20.094H37a11.391,11.391,0,0,0-9.312-6.25,1.221,1.221,0,0,0-.125-.031c-.033,0-.06-.03-.094-.031a1.2,1.2,0,0,0-.25-.031h-.031c-6.373,0-11.326,5.851-11.594,12.938-5.533.365-9.75,5.668-9.75,11.938,0,6.5,4.523,11.938,10.344,11.938H48.563c.128.01.276.031.469.031H83.813c5.821,0,10.344-5.442,10.344-11.937,0-6.272-4.248-11.484-9.781-11.844-.225-7.131-5.192-13.031-11.594-13.031A10.211,10.211,0,0,0,66.375,999c.021-.328.063-.666.063-1a15.167,15.167,0,0,0-15.156-15.125Zm0,2.406a12.8,12.8,0,0,1,11.75,17.688,13.132,13.132,0,0,1,.813-1.281,13.6,13.6,0,0,1,.906-1.156,13.49,13.49,0,0,0-.906,1.156,14.385,14.385,0,0,0-.812,1.281c-.011.02-.02.042-.031.062a10.111,10.111,0,0,0-4.094-.969A11.072,11.072,0,0,0,50,1006.971,11.154,11.154,0,0,0,41.063,1002a8.237,8.237,0,0,0-1.781.219,12.722,12.722,0,0,1,12-16.938Zm-26,5.688a1.2,1.2,0,1,0,.125,2.406h6.531a1.2,1.2,0,0,0,0-2.406H25.406a1.186,1.186,0,0,0-.125,0Zm46,0a1.2,1.2,0,0,0,.125,2.406h6.531a1.2,1.2,0,0,0,0-2.406H71.406A1.186,1.186,0,0,0,71.281,990.972Zm-44.125,8.063h.031c3.521,0,6.6,2.312,8.187,5.906a1.2,1.2,0,0,0,1.719.563,7.863,7.863,0,0,1,3.969-1.094,9.073,9.073,0,0,1,7.875,5.188,1.2,1.2,0,0,0,2.125.031,9.016,9.016,0,0,1,7.844-5.156,7.977,7.977,0,0,1,4,1.094,1.2,1.2,0,0,0,1.687-.562c1.587-3.6,4.671-5.938,8.188-5.938,5.026,0,9.313,4.849,9.313,11.094,0,.171-.022.343-.031.563a1.2,1.2,0,0,0,1.281,1.25c.167-.012.338,0,.469,0,4.3,0,7.938,4.168,7.938,9.563s-3.634,9.531-7.937,9.531H49.031c-.092,0-.226-.02-.406-.031H16.187c-4.3,0-7.969-4.137-7.969-9.531s3.673-9.594,7.969-9.594c.024,0,.189.012.469.031a1.2,1.2,0,0,0,1.25-1.25c-.01-.219,0-.391,0-.562,0-6.232,4.238-11.074,9.25-11.094Z" fill="#fff"/>
  </g>
</svg>
