<svg id="Page-1" xmlns="http://www.w3.org/2000/svg" width="39.99" height="39.99" viewBox="0 0 39.99 39.99">
  <g id="YouTube">
    <path id="Oval-1" d="M39.99,19.995A19.995,19.995,0,1,0,19.995,39.99,19.995,19.995,0,0,0,39.99,19.995Zm-2.4,0a17.6,17.6,0,1,0-17.6,17.6A17.6,17.6,0,0,0,37.591,19.995Zm-8.183,4.611A2.464,2.464,0,0,1,27.3,26.523a65.505,65.505,0,0,1-7.3.27,65.5,65.5,0,0,1-7.3-.27,2.463,2.463,0,0,1-2.108-1.917A20.907,20.907,0,0,1,10.241,20a20.922,20.922,0,0,1,.343-4.611,2.463,2.463,0,0,1,2.108-1.917A65.507,65.507,0,0,1,20,13.2a65.5,65.5,0,0,1,7.3.27,2.463,2.463,0,0,1,2.109,1.917A20.9,20.9,0,0,1,29.749,20,20.917,20.917,0,0,1,29.407,24.606ZM18.239,16.4l5.4,3.117-5.4,3.117Zm0,0" fill="#fff" fill-rule="evenodd"/>
  </g>
</svg>
